<svg width="203" height="233" viewBox="0 0 203 233" fill="none" xmlns="http://www.w3.org/2000/svg">
<path d="M102.347 79.2924C122.413 79.616 138.595 96.1217 138.595 115.864C138.272 135.93 121.766 152.112 101.7 151.788C81.6342 151.465 65.7757 135.282 65.7757 115.217C65.7757 95.4745 82.2815 79.2924 102.347 79.2924ZM135.682 115.864C136.006 98.0636 121.766 82.2051 102.347 82.2051C83.576 82.2051 68.6885 97.0927 68.6885 115.54C68.6885 133.664 82.9288 149.199 102.024 149.199C120.471 149.523 135.682 134.312 135.682 115.864Z" fill="url(#paint0_linear)"/>
<path d="M99.1109 0C100.405 0 100.405 0.647284 100.729 1.29457C100.729 1.94185 100.729 2.91278 100.729 3.56006C101.053 10.6802 101.053 17.4767 101.376 24.5968C101.7 38.5134 102.024 52.43 102.024 66.3466C102.024 66.9939 102.024 67.6412 102.024 68.2885C102.024 68.9358 101.376 69.2594 100.729 69.2594C100.082 69.2594 99.4345 68.9358 99.4345 68.2885C99.4345 67.6412 99.4345 67.3176 99.4345 66.6703C99.1109 57.932 99.1109 48.87 99.1109 40.1316C99.1109 29.4514 98.7872 18.7712 98.7872 8.4147C98.7872 6.47284 98.7872 4.20735 98.7872 2.2655C98.7872 1.29457 98.7872 0.647284 99.1109 0Z" fill="url(#paint1_linear)"/>
<path d="M100.082 232.699C100.082 232.051 99.7582 231.404 99.7582 230.757C99.7582 229.139 99.7582 227.52 99.7582 225.902C100.082 206.16 100.405 186.418 100.729 166.676C100.729 166.028 100.729 165.705 100.729 165.058C100.729 164.41 101.376 163.763 102.024 163.763C102.671 163.763 102.995 164.41 103.318 165.058C103.318 165.381 103.318 166.028 103.318 166.352C102.995 180.592 102.671 194.833 102.671 209.073C102.671 215.869 102.347 222.666 102.024 229.462C102.024 230.433 102.024 231.081 101.7 232.051C101.376 232.375 101.053 232.699 100.082 232.699Z" fill="url(#paint2_linear)"/>
<path d="M0.399994 70.2304C1.69456 69.5831 2.34185 69.9068 3.31277 70.2304C7.52012 72.1723 11.7275 73.7905 15.9348 75.7323C29.8514 82.2052 44.0917 88.3544 58.0083 94.8272C58.3319 95.1508 58.9792 95.1508 59.3029 95.4745C59.9502 95.7981 59.9502 96.4454 59.6265 97.0927C59.3029 97.4163 58.6556 97.74 58.3319 97.74C58.0083 97.74 57.6847 97.4163 57.361 97.4163C40.208 89.3253 22.7313 81.5579 5.57827 73.4668C4.2837 72.8195 2.98913 72.1723 1.69456 71.525C1.37092 71.2013 1.04728 70.8777 0.399994 70.2304Z" fill="url(#paint3_linear)"/>
<path d="M202.353 70.554C202.029 70.8776 201.705 71.5249 201.058 71.8486C199.764 72.8195 198.145 73.4668 196.851 74.114C184.876 79.616 172.901 85.4415 160.603 90.9434C155.748 93.2089 150.57 95.4744 145.715 97.7399C145.068 98.0636 144.744 98.3872 144.097 98.3872C143.773 98.3872 143.126 98.0636 142.803 97.7399C142.803 97.4163 142.803 96.769 143.126 96.1217C143.45 95.7981 143.773 95.4744 144.421 95.4744C161.25 87.707 178.08 80.2633 194.909 72.4958C196.527 71.8486 198.145 71.2013 199.764 70.554C200.411 70.2303 201.058 70.2303 201.705 70.2303C202.029 70.2303 202.029 70.554 202.353 70.554Z" fill="url(#paint4_linear)"/>
<path d="M203 162.468C202.029 163.116 201.382 162.468 200.735 162.145C197.498 160.85 194.262 159.556 191.025 157.937C175.814 151.141 160.603 144.021 145.715 137.224C145.068 136.901 144.744 136.901 144.421 136.253C144.097 135.93 144.097 135.282 144.097 134.959C144.097 134.635 144.744 134.312 145.392 134.312C145.715 134.312 146.363 134.635 146.686 134.635C163.516 142.403 180.669 150.17 197.498 157.937C199.116 158.585 200.735 159.556 202.353 160.527C202.676 161.174 202.676 161.174 203 162.468Z" fill="url(#paint5_linear)"/>
<path d="M1.69456 162.792C1.69456 161.497 2.66549 161.174 3.31277 160.85C6.5492 159.232 9.46198 157.614 12.6984 156.319C27.9096 149.199 43.1208 142.403 58.332 135.282C58.9792 134.959 59.3029 134.635 59.9502 134.635C60.2738 134.635 60.9211 134.959 61.2447 135.282C61.2447 135.606 61.2447 136.253 60.9211 136.901C60.5975 137.224 60.2738 137.548 59.6265 137.548C43.1208 144.992 26.2914 152.759 9.78562 160.203C7.84377 161.174 6.22555 161.821 4.2837 162.468C3.31277 162.792 2.34185 162.792 1.69456 162.792Z" fill="url(#paint6_linear)"/>
<path d="M62.5393 19.0949C63.5102 18.7713 63.8339 19.4186 64.1575 20.0659C64.8048 21.0368 65.1284 22.0077 65.4521 22.9786C71.9249 38.5135 78.7214 54.0483 85.1943 69.5831C85.5179 70.2304 85.8415 70.8777 85.8415 71.525C85.8415 72.1723 85.8415 72.8195 85.1943 73.1432C84.547 73.4668 83.8997 73.1432 83.576 72.4959C83.2524 72.1722 82.9288 71.525 82.9288 71.2013C76.1323 55.0192 69.6594 38.8371 62.8629 22.655C62.5393 22.0077 62.2157 21.3604 62.2157 20.7131C61.892 20.0659 61.892 19.4186 62.5393 19.0949Z" fill="url(#paint7_linear)"/>
<path d="M140.213 19.4186C140.861 20.0659 140.861 20.7132 140.537 21.3605C139.89 22.9787 139.242 24.5969 138.595 26.2151C132.446 41.1026 126.297 55.9902 120.148 70.5541C119.824 71.2014 119.5 71.8486 119.177 72.4959C118.853 73.1432 118.206 73.4669 117.558 73.1432C116.911 72.8196 116.588 72.1723 116.911 71.525C117.235 70.8777 117.235 70.2304 117.558 69.9068C124.031 54.372 130.504 38.8371 137.301 23.6259C137.624 22.655 138.272 21.6841 138.595 20.7132C138.919 19.7422 139.242 19.095 140.213 19.4186Z" fill="url(#paint8_linear)"/>
<path d="M141.184 213.28C140.213 213.604 139.89 212.957 139.566 212.309C138.919 211.338 138.595 210.367 138.272 209.396C131.799 193.862 125.002 178.327 118.529 162.792C118.206 162.145 118.206 161.821 117.882 161.174C117.558 160.527 117.882 159.879 118.529 159.232C119.177 158.908 119.824 159.232 120.471 160.203C120.795 160.527 120.795 160.85 120.795 161.174C127.591 177.356 134.064 193.538 140.861 209.72C141.184 210.367 141.184 211.015 141.508 211.662C141.832 212.309 141.832 212.957 141.184 213.28Z" fill="url(#paint9_linear)"/>
<path d="M63.5102 213.604C62.5393 212.957 62.8629 212.309 63.1866 211.662C63.8339 210.044 64.4811 208.426 65.1284 206.807C71.2776 191.92 77.4268 177.032 83.576 162.468C83.8997 161.821 84.2233 161.174 84.547 160.527C84.8706 159.879 85.5179 159.556 86.1652 159.879C86.8125 160.203 87.1361 160.85 86.8125 161.497C86.8125 162.145 86.4888 162.468 86.1652 163.116C79.3687 178.974 72.8958 194.833 66.0994 210.367C65.7757 211.015 65.4521 211.986 65.1284 212.633C64.8048 213.28 64.4811 213.604 63.5102 213.604Z" fill="url(#paint10_linear)"/>
<path d="M3.96006 112.304C4.60734 111.656 5.57827 111.656 6.22555 111.656C10.4329 111.656 14.6403 111.98 18.8476 111.98C29.8514 112.627 40.8553 113.275 51.8591 113.922C52.5064 113.922 53.1537 113.922 54.1246 114.246C54.7719 114.246 55.4192 114.893 55.0955 115.54C55.0955 115.864 54.4482 116.511 54.1246 116.511C53.801 116.835 53.1537 116.511 52.5064 116.511C37.9425 115.54 23.7022 114.569 9.13833 113.598C7.84376 113.598 6.54919 113.275 5.25463 113.275C4.60734 113.275 3.96006 113.275 3.96006 112.304Z" fill="url(#paint11_linear)"/>
<path d="M198.793 112.304C198.793 113.598 198.145 113.598 197.498 113.598C196.204 113.922 194.909 113.922 193.614 113.922C183.258 114.569 172.901 115.217 162.868 116.187C158.661 116.511 154.777 116.835 150.57 116.835C150.246 116.835 149.599 116.835 149.275 116.835C148.628 116.835 147.981 116.511 147.981 115.54C147.981 114.893 148.304 114.246 149.275 114.246C149.599 114.246 150.246 113.922 150.57 113.922C164.81 113.275 179.05 112.304 193.291 111.656C194.585 111.656 195.88 111.656 197.174 111.656C197.498 111.98 198.145 112.304 198.793 112.304Z" fill="url(#paint12_linear)"/>
<path d="M37.9425 45.9572C38.5898 45.6335 39.2371 45.9572 39.5607 46.2808C40.5316 47.2517 41.5026 48.2227 42.4735 48.87C51.8591 58.5792 61.2447 68.2885 70.3067 77.6741C70.6304 77.9978 71.2776 78.645 71.2776 78.9687C71.2776 79.2923 71.2776 79.9396 70.954 80.2632C70.6303 80.5869 69.9831 80.5869 69.6594 80.2632C69.3358 79.9396 69.0121 79.616 68.6885 79.2923C58.9792 69.2594 49.27 58.9029 39.5607 48.87C38.9134 48.2227 38.5898 47.5754 37.9425 46.9281C37.9425 47.2517 37.6189 46.6045 37.9425 45.9572Z" fill="url(#paint13_linear)"/>
<path d="M164.487 45.9572C165.134 46.9281 164.81 47.2518 164.487 47.8991C163.839 48.5464 163.192 49.5173 162.545 50.1646C153.159 60.1975 143.45 70.2304 134.064 80.2633C133.741 80.5869 133.417 80.9106 132.77 81.2342C132.122 81.5579 131.799 81.5579 131.151 81.2342C130.828 80.9106 130.828 80.2633 130.828 79.9396C130.828 79.616 131.475 78.9687 131.799 78.6451C141.832 68.2885 151.541 58.2556 161.574 47.8991C161.897 47.5754 162.545 46.9281 162.868 46.6045C163.516 46.2809 164.163 46.2809 164.487 45.9572Z" fill="url(#paint14_linear)"/>
<path d="M165.781 186.418C164.81 186.742 164.163 186.094 163.516 185.771C161.574 183.829 159.632 182.211 158.014 180.269C149.923 171.854 141.508 163.116 133.417 154.701C133.093 154.377 132.446 153.73 132.122 153.406C131.799 152.759 131.799 152.112 132.446 151.788C133.093 151.465 133.417 151.465 134.064 151.788C134.388 152.112 134.712 152.435 135.035 152.759C144.744 162.792 154.13 172.825 163.839 182.858C164.487 183.505 165.134 184.152 165.458 184.8C165.781 185.123 166.105 185.771 165.781 186.418Z" fill="url(#paint15_linear)"/>
<path d="M39.2371 187.065C38.5898 185.771 38.9134 185.447 39.5607 184.8C41.1789 183.181 42.4735 181.24 44.0917 179.621C52.5064 170.883 60.9211 162.145 69.3358 153.406C69.9831 152.759 70.3067 152.435 70.954 152.112C71.2776 151.788 71.9249 151.788 72.5722 152.112C73.2195 152.435 73.2195 153.083 72.8958 153.73C72.5722 154.054 72.5722 154.377 72.2486 154.701C62.2157 165.057 52.1827 175.414 41.8262 186.094C41.5026 186.418 41.1789 186.741 40.8553 187.065C40.208 186.741 39.8843 186.741 39.2371 187.065Z" fill="url(#paint16_linear)"/>
<path d="M118.529 115.864C118.529 124.602 111.409 131.722 102.671 131.722C93.9326 131.722 86.4888 124.602 86.4888 115.54C86.4888 106.802 93.9326 99.3581 102.671 99.6817C111.733 100.005 118.853 107.126 118.529 115.864ZM89.4016 115.54C89.4016 122.984 95.2272 128.81 102.347 128.81C109.791 128.81 115.94 122.984 115.94 115.864C115.94 108.42 110.115 102.595 102.671 102.595C95.5508 102.595 89.4016 108.42 89.4016 115.54Z" fill="#CCE490"/>
<defs>
<linearGradient id="paint0_linear" x1="102.185" y1="79.2924" x2="102.185" y2="151.793" gradientUnits="userSpaceOnUse">
<stop offset="0.765625" stop-color="#F2F4B2"/>
<stop offset="1" stop-color="#F2F4B2" stop-opacity="0"/>
</linearGradient>
<linearGradient id="paint1_linear" x1="100.405" y1="0" x2="100.405" y2="69.2594" gradientUnits="userSpaceOnUse">
<stop offset="0.765625" stop-color="#F2F4B2"/>
<stop offset="1" stop-color="#F2F4B2" stop-opacity="0"/>
</linearGradient>
<linearGradient id="paint2_linear" x1="101.538" y1="163.763" x2="101.538" y2="232.699" gradientUnits="userSpaceOnUse">
<stop offset="0.765625" stop-color="#F2F4B2"/>
<stop offset="1" stop-color="#F2F4B2" stop-opacity="0"/>
</linearGradient>
<linearGradient id="paint3_linear" x1="30.1195" y1="69.8567" x2="30.1195" y2="97.74" gradientUnits="userSpaceOnUse">
<stop offset="0.765625" stop-color="#F2F4B2"/>
<stop offset="1" stop-color="#F2F4B2" stop-opacity="0"/>
</linearGradient>
<linearGradient id="paint4_linear" x1="172.578" y1="70.2303" x2="172.578" y2="98.3872" gradientUnits="userSpaceOnUse">
<stop offset="0.765625" stop-color="#F2F4B2"/>
<stop offset="1" stop-color="#F2F4B2" stop-opacity="0"/>
</linearGradient>
<linearGradient id="paint5_linear" x1="173.549" y1="134.312" x2="173.549" y2="162.745" gradientUnits="userSpaceOnUse">
<stop offset="0.765625" stop-color="#F2F4B2"/>
<stop offset="1" stop-color="#F2F4B2" stop-opacity="0"/>
</linearGradient>
<linearGradient id="paint6_linear" x1="31.4696" y1="134.635" x2="31.4696" y2="162.792" gradientUnits="userSpaceOnUse">
<stop offset="0.765625" stop-color="#F2F4B2"/>
<stop offset="1" stop-color="#F2F4B2" stop-opacity="0"/>
</linearGradient>
<linearGradient id="paint7_linear" x1="73.9223" y1="19.0089" x2="73.9223" y2="73.2701" gradientUnits="userSpaceOnUse">
<stop offset="0.765625" stop-color="#F2F4B2"/>
<stop offset="1" stop-color="#F2F4B2" stop-opacity="0"/>
</linearGradient>
<linearGradient id="paint8_linear" x1="128.767" y1="19.3344" x2="128.767" y2="73.2702" gradientUnits="userSpaceOnUse">
<stop offset="0.765625" stop-color="#F2F4B2"/>
<stop offset="1" stop-color="#F2F4B2" stop-opacity="0"/>
</linearGradient>
<linearGradient id="paint9_linear" x1="129.738" y1="159.111" x2="129.738" y2="213.366" gradientUnits="userSpaceOnUse">
<stop offset="0.765625" stop-color="#F2F4B2"/>
<stop offset="1" stop-color="#F2F4B2" stop-opacity="0"/>
</linearGradient>
<linearGradient id="paint10_linear" x1="74.9012" y1="159.752" x2="74.9012" y2="213.604" gradientUnits="userSpaceOnUse">
<stop offset="0.765625" stop-color="#F2F4B2"/>
<stop offset="1" stop-color="#F2F4B2" stop-opacity="0"/>
</linearGradient>
<linearGradient id="paint11_linear" x1="29.5708" y1="111.656" x2="29.5708" y2="116.655" gradientUnits="userSpaceOnUse">
<stop offset="0.765625" stop-color="#F2F4B2"/>
<stop offset="1" stop-color="#F2F4B2" stop-opacity="0"/>
</linearGradient>
<linearGradient id="paint12_linear" x1="173.387" y1="111.656" x2="173.387" y2="116.835" gradientUnits="userSpaceOnUse">
<stop offset="0.765625" stop-color="#F2F4B2"/>
<stop offset="1" stop-color="#F2F4B2" stop-opacity="0"/>
</linearGradient>
<linearGradient id="paint13_linear" x1="54.5381" y1="45.8231" x2="54.5381" y2="80.506" gradientUnits="userSpaceOnUse">
<stop offset="0.765625" stop-color="#F2F4B2"/>
<stop offset="1" stop-color="#F2F4B2" stop-opacity="0"/>
</linearGradient>
<linearGradient id="paint14_linear" x1="147.844" y1="45.9572" x2="147.844" y2="81.4769" gradientUnits="userSpaceOnUse">
<stop offset="0.765625" stop-color="#F2F4B2"/>
<stop offset="1" stop-color="#F2F4B2" stop-opacity="0"/>
</linearGradient>
<linearGradient id="paint15_linear" x1="148.913" y1="151.545" x2="148.913" y2="186.506" gradientUnits="userSpaceOnUse">
<stop offset="0.765625" stop-color="#F2F4B2"/>
<stop offset="1" stop-color="#F2F4B2" stop-opacity="0"/>
</linearGradient>
<linearGradient id="paint16_linear" x1="55.9963" y1="151.869" x2="55.9963" y2="187.065" gradientUnits="userSpaceOnUse">
<stop offset="0.765625" stop-color="#F2F4B2"/>
<stop offset="1" stop-color="#F2F4B2" stop-opacity="0"/>
</linearGradient>
</defs>
</svg>
